<svg width="257" height="305" viewBox="0 0 257 305" fill="none" xmlns="http://www.w3.org/2000/svg">
    <path
        d="M181.589 0.970623C186.819 6.06288 188.515 9.40866 189.706 16.6222C189.732 35.561 187.936 54.2092 175.411 69.3229C164.456 79.3415 154.005 83.6095 139.034 83.6095C139.814 85.1678 140.594 86.7262 141.398 88.3317C143.056 87.6013 144.714 86.8708 146.422 86.1182C168.237 78.0666 188.698 80.0824 209.959 88.3317C230.882 99.1978 243.787 117.131 250.879 139.142C251.419 141.074 251.958 143.007 252.514 144.998C252.965 146.435 253.416 147.872 253.881 149.352C261.452 187.997 250.948 236.215 229.75 269.012C218.803 283.736 206.562 297.498 188.681 303.193C169.957 305.156 153.956 304.247 137.104 295.584C127.668 292.229 120.785 295.808 111.993 299.799C95.9864 305.873 77.6605 305.989 61.3022 301.201C35.0368 289.346 21.4568 265.392 11.3683 239.443C-0.732535 204.753 -4.78223 163.189 9.0041 128.471C9.66238 126.763 10.3207 125.056 10.9989 123.296C18.1252 107.13 29.3833 95.0293 45.3533 87.2987C64.9188 80.3458 91.3701 79.9177 110.811 87.1512C113.103 88.3199 115.395 89.4887 117.756 90.6928C117.531 88.0418 117.305 85.3909 117.073 82.6595C113.483 36.5362 113.483 36.5362 127.804 18.9741C142.98 3.15697 160.324 -0.742033 181.589 0.970623Z"
        fill="#E02F2F" />
    <path
        d="M181.589 0.970623C186.819 6.06288 188.515 9.40866 189.706 16.6222C189.732 35.561 187.936 54.2092 175.411 69.3229C164.456 79.3415 154.005 83.6095 139.034 83.6095C139.814 85.1679 140.594 86.7262 141.398 88.3317C143.056 87.6013 144.714 86.8708 146.422 86.1182C168.237 78.0667 188.698 80.0824 209.959 88.3317C230.882 99.1978 243.787 117.131 250.879 139.142C251.419 141.074 251.958 143.007 252.514 144.998C252.965 146.435 253.416 147.872 253.881 149.352C261.452 187.997 250.948 236.215 229.75 269.012C218.803 283.736 206.562 297.498 188.681 303.193C169.957 305.156 153.956 304.247 137.104 295.584C127.668 292.229 120.785 295.808 111.993 299.799C95.9864 305.873 77.6605 305.989 61.3022 301.201C35.0368 289.346 21.4568 265.392 11.3683 239.443C-0.732535 204.753 -4.78223 163.189 9.0041 128.471C9.66238 126.763 10.3207 125.056 10.9989 123.296C18.1252 107.13 29.3833 95.0293 45.3533 87.2988C64.9188 80.3458 91.3701 79.9177 110.811 87.1512C113.103 88.3199 115.395 89.4887 117.756 90.6929C117.531 88.0419 117.305 85.3909 117.073 82.6595C113.483 36.5362 113.483 36.5362 127.804 18.9741C142.98 3.15697 160.324 -0.742033 181.589 0.970623ZM36.3399 120.649C24.1594 137.607 21.9303 157.022 22.1548 177.316C22.1727 179.594 22.1906 181.871 22.2091 184.218C22.8978 214.249 30.5023 245.613 51.6147 268.164C63.0608 278.49 72.5598 285.522 88.5734 285.254C95.5013 284.066 100.947 281.461 107.265 278.401C117.725 273.351 124.874 270.498 136.67 272.498C141.75 274.615 146.528 276.968 151.335 279.646C161.082 284.916 170.758 285.932 181.589 284.304C200.567 277.241 211.334 260.528 219.933 243.021C222.395 237.171 224.496 231.295 226.508 225.276C227.215 223.429 227.922 221.581 228.651 219.678C236.811 195.494 238.648 162.389 229.611 138.21C220.25 119.804 208.264 109.083 188.681 102.498C173.827 99.844 162.935 101.815 149.525 108.549C136.428 115.089 127.125 115.73 113.028 111.943C109.009 110.394 105.018 108.769 101.059 107.073C78.6009 97.5206 52.3497 100.821 36.3399 120.649Z"
        fill="#221F1E" />
    <path
        d="M186.317 121.387C198.33 126.941 206.006 135.897 212.323 147.359C214.79 154.721 214.937 161.47 214.835 169.2C214.814 171.306 214.792 173.412 214.77 175.582C214.743 177.177 214.716 178.772 214.687 180.415C211.567 180.415 208.446 180.415 205.231 180.415C204.828 178.336 204.426 176.257 204.012 174.116C203.439 171.373 202.866 168.631 202.275 165.806C201.727 163.094 201.178 160.382 200.613 157.588C197.951 149.127 194.738 144.327 188.681 137.915C182.608 134.882 177.414 134.775 170.655 134.226C167.098 133.929 167.098 133.929 163.47 133.626C161.647 133.483 159.825 133.34 157.947 133.193C157.167 130.076 156.387 126.96 155.583 123.748C164.93 119.081 176.13 120.379 186.317 121.387Z"
        fill="#FAECEC" />
    <path
        d="M167.404 22.2206C168.453 42.8216 168.453 42.8216 160.311 52.9151C153.985 59.0672 150.72 62.1616 141.841 62.9498C140.135 62.755 138.428 62.5602 136.67 62.3595C135.918 51.4811 135.655 45.5359 140.511 35.6494C148.313 26.8329 155.481 22.2206 167.404 22.2206Z"
        fill="#2CC26B" />
</svg>