<svg width="512" height="512" viewBox="0 0 512 512" fill="none" xmlns="http://www.w3.org/2000/svg">
    <rect width="512" height="512" fill="#FFDD00" />
    <path
        d="M276.82 65.28C287.863 65.28 298.457 69.6667 306.265 77.4767C314.073 85.285 318.458 95.875 318.458 106.918C318.458 117.96 314.073 128.552 306.265 136.36C298.453 144.167 287.863 148.553 276.82 148.553C253.828 148.553 235.187 129.913 235.187 106.918C235.187 95.875 239.573 85.285 247.38 77.4767C255.188 69.6667 265.778 65.28 276.82 65.28ZM130.755 92.1017C135.552 91.8784 140.24 93.57 143.79 96.8034L187.592 136.712L231.27 151.205L256.042 152.707C256.302 152.745 256.558 152.79 256.815 152.84C257.792 152.738 258.735 152.663 259.575 152.645C265.023 152.523 273.697 154.195 279.018 155.337C279.342 155.287 279.67 155.245 280 155.213C282.648 155.165 285.273 155.698 287.692 156.773C292.825 158.008 297.335 161.872 300.548 166.842C302.737 168.673 305.152 170.645 307.928 172.747C316.445 179.192 328.097 185.048 330.09 185.367C332.043 185.678 344.87 183.765 354.918 180.317C364.965 176.867 372.983 173.088 372.983 173.088C382.023 168.815 392.815 172.678 397.09 181.717C399.142 186.057 399.385 191.035 397.768 195.555C396.15 200.077 392.802 203.768 388.462 205.822C388.462 205.822 378.823 210.39 366.672 214.562C354.522 218.733 340.603 223.715 324.373 221.118C312.473 219.215 303.01 213.832 294.758 208.03C291.017 216.183 287.5 225.245 286.668 232.025C284.902 246.397 293.257 274.963 293.257 274.963C293.2 275.865 293.102 276.755 292.965 277.632L350.57 412.872C352.922 418.393 352.985 424.623 350.74 430.19C348.5 435.758 344.14 440.207 338.618 442.558C327.12 447.457 313.83 442.105 308.932 430.608L253.128 299.593H238.997C238.332 306.123 237.273 315.283 235.685 325.612C232.69 345.072 228.91 367.353 219.132 385.832C210.525 402.09 197.052 413.933 185.242 424.213C173.43 434.493 163.055 442.042 163.055 442.042C152.947 449.397 138.793 447.168 131.438 437.065C124.083 426.96 126.31 412.807 136.417 405.452C136.417 405.452 145.335 398.948 155.528 390.077C165.717 381.207 176.938 368.802 179.127 364.663C182.942 357.455 188.253 336.292 190.953 318.73C193.655 301.168 194.752 286.667 194.752 286.667C194.935 284.647 195.387 282.662 196.1 280.762C195.635 278.9 195.353 276.965 195.323 274.963C195.323 274.963 196.13 234.677 199.923 214.99C202.073 203.852 210.027 182.742 210.172 182.353L172.538 169.863C170.137 169.065 167.923 167.77 166.05 166.063L119.407 123.568C115.857 120.335 113.737 115.823 113.513 111.027C113.288 106.23 114.982 101.543 118.217 97.9934C121.45 94.4434 125.96 92.325 130.755 92.1017Z"
        fill="black" />
</svg>